<svg width="30" height="38" viewBox="0 0 30 38" fill="none" xmlns="http://www.w3.org/2000/svg">
<path d="M12.33 24.7081C14.6708 24.7081 16.9158 23.7782 18.571 22.1229C20.2263 20.4677 21.1562 18.2227 21.1562 15.8819C21.1562 13.541 20.2263 11.296 18.571 9.6408C16.9158 7.98556 14.6708 7.05566 12.33 7.05566C9.9891 7.05566 7.74412 7.98556 6.08889 9.6408C4.43366 11.296 3.50376 13.541 3.50376 15.8819C3.50376 18.2227 4.43366 20.4677 6.08889 22.1229C7.74412 23.7782 9.9891 24.7081 12.33 24.7081V24.7081ZM22.9443 9.55171C23.9862 11.2992 24.5805 13.2768 24.6747 15.309C24.7689 17.3413 24.36 19.3654 23.4843 21.2017C22.6085 23.038 21.2931 24.6298 19.6546 25.8358C18.0161 27.0418 16.1053 27.8246 14.0917 28.115L14.0952 28.2385V30.0038H15.8604C16.3286 30.0038 16.7776 30.1898 17.1086 30.5208C17.4397 30.8518 17.6257 31.3008 17.6257 31.769C17.6257 32.2372 17.4397 32.6862 17.1086 33.0172C16.7776 33.3483 16.3286 33.5343 15.8604 33.5343H14.0952V35.2995C14.0952 35.7677 13.9092 36.2167 13.5782 36.5477C13.2471 36.8788 12.7981 37.0647 12.33 37.0647C11.8618 37.0647 11.4128 36.8788 11.0817 36.5477C10.7507 36.2167 10.5647 35.7677 10.5647 35.2995V33.5343H8.79947C8.3313 33.5343 7.88231 33.3483 7.55126 33.0172C7.22022 32.6862 7.03424 32.2372 7.03424 31.769C7.03424 31.3008 7.22022 30.8518 7.55126 30.5208C7.88231 30.1898 8.3313 30.0038 8.79947 30.0038H10.5647V28.2385C10.5647 28.1962 10.5647 28.1556 10.5682 28.115C7.4812 27.6626 4.67944 26.0596 2.72515 23.6274C0.770865 21.1953 -0.191337 18.1141 0.0316205 15.0021C0.254578 11.8901 1.6462 8.97748 3.92724 6.84879C6.20828 4.72011 9.20996 3.53282 12.33 3.52518C15.4343 3.5214 18.4258 4.68959 20.706 6.79617L23.9717 3.53048H21.1738C20.7056 3.53048 20.2566 3.3445 19.9256 3.01345C19.5945 2.68241 19.4086 2.23341 19.4086 1.76524C19.4086 1.29707 19.5945 0.848073 19.9256 0.517027C20.2566 0.18598 20.7056 0 21.1738 0H28.2348C28.7029 0 29.1519 0.18598 29.483 0.517027C29.814 0.848073 30 1.29707 30 1.76524V8.8262C30 9.29437 29.814 9.74336 29.483 10.0744C29.1519 10.4055 28.7029 10.5914 28.2348 10.5914C27.7666 10.5914 27.3176 10.4055 26.9865 10.0744C26.6555 9.74336 26.4695 9.29437 26.4695 8.8262V6.02653L22.9461 9.55171H22.9443Z" fill="#8A8C90"/>
</svg>
