<svg width="455" height="277" viewBox="0 0 455 277" fill="none" xmlns="http://www.w3.org/2000/svg">
<path d="M203.155 38.8367C184.263 84.9344 169.894 129.988 160.05 173.998L116.107 180.177L125.362 108.73L105.323 174.595L63.5224 181.03C71.1574 132.269 75.4891 87.4518 76.5176 46.5791L113.811 40.6023L103.773 125.899L131.843 31.7348L151.84 29.3708L134.954 149.448L165.114 43.6199L203.155 38.8367ZM253.931 32.8514C267.728 33.2426 277.272 41.1985 282.563 56.7193C285.332 64.7437 286.581 73.5066 286.312 83.008C286.053 92.1189 284.406 101.972 281.37 112.567C276.038 130.653 267.232 147.207 254.952 162.229C239.974 180.562 224.415 189.5 208.275 189.042C194.349 188.647 184.675 180.688 179.253 165.163C176.604 157.533 175.412 149.032 175.677 139.661C175.939 130.42 177.655 120.438 180.825 109.717C186.161 91.5013 194.904 74.8804 207.053 59.8541C222.036 41.391 237.662 32.3902 253.931 32.8514ZM245.53 81.0702C238.371 80.8672 230.917 86.5176 223.166 98.0213C216.916 107.093 212.495 116.02 209.901 124.805C208.597 129.457 207.891 133.67 207.784 137.445C207.633 142.781 208.811 147.179 211.318 150.636C214.205 154.496 218.316 156.501 223.653 156.652C230.941 156.859 237.623 153.206 243.698 145.693C248.557 139.708 252.146 132.58 254.464 124.31C257.214 114.618 258.008 105.001 256.845 95.4591C255.549 86.0436 251.777 81.2473 245.53 81.0702ZM414.984 44.8423C396.092 90.94 381.723 135.994 371.878 180.003L327.936 186.182L337.191 114.736L317.152 180.601L275.351 187.036C282.986 138.274 287.318 93.4573 288.347 52.5847L325.64 46.6079L315.602 131.905L343.672 37.7404L363.669 35.3764L346.783 155.454L376.943 49.6255L414.984 44.8423Z" fill="#D60000"/>
<path d="M203.155 38.8367L226.288 48.3171L242.528 8.68919L200.036 14.032L203.155 38.8367ZM160.05 173.998L163.531 198.754L180.668 196.344L184.447 179.455L160.05 173.998ZM116.107 180.177L91.3139 176.965L87.0992 209.501L119.588 204.933L116.107 180.177ZM125.362 108.73L150.155 111.942L101.444 101.454L125.362 108.73ZM105.323 174.595L109.127 199.304L124.665 196.912L129.241 181.872L105.323 174.595ZM63.5224 181.03L38.8233 177.163L33.5344 210.942L67.3263 205.739L63.5224 181.03ZM76.5176 46.5791L72.5616 21.8941L52.0482 25.1816L51.5255 45.9502L76.5176 46.5791ZM113.811 40.6023L138.64 43.5244L142.505 10.6848L109.855 15.9173L113.811 40.6023ZM103.773 125.899L78.9442 122.977L127.731 133.041L103.773 125.899ZM131.843 31.7348L128.908 6.90765L112.582 8.83769L107.885 24.5928L131.843 31.7348ZM151.84 29.3708L176.597 32.8523L181.113 0.736287L148.905 4.54372L151.84 29.3708ZM134.954 149.448L110.198 145.967L158.997 156.3L134.954 149.448ZM165.114 43.6199L161.995 18.8152L145.6 20.8767L141.071 36.7681L165.114 43.6199ZM180.022 29.3563C160.651 76.6234 145.835 123.022 135.653 168.54L184.447 179.455C193.954 136.954 207.875 93.2455 226.288 48.3171L180.022 29.3563ZM156.568 149.241L112.626 155.42L119.588 204.933L163.531 198.754L156.568 149.241ZM140.9 183.388L150.155 111.942L100.569 105.519L91.3139 176.965L140.9 183.388ZM101.444 101.454L81.4056 167.319L129.241 181.872L149.279 116.007L101.444 101.454ZM101.519 149.886L59.7185 156.321L67.3263 205.739L109.127 199.304L101.519 149.886ZM88.2215 184.898C95.9912 135.276 100.449 89.36 101.51 47.208L51.5255 45.9502C50.5292 85.5435 46.3235 129.262 38.8233 177.163L88.2215 184.898ZM80.4737 71.2641L117.767 65.2873L109.855 15.9173L72.5616 21.8941L80.4737 71.2641ZM88.9827 37.6802L78.9442 122.977L128.602 128.821L138.64 43.5244L88.9827 37.6802ZM127.731 133.041L155.801 38.8767L107.885 24.5928L79.8147 118.757L127.731 133.041ZM134.778 56.5619L154.775 54.198L148.905 4.54372L128.908 6.90765L134.778 56.5619ZM127.084 25.8894L110.198 145.967L159.71 152.93L176.597 32.8523L127.084 25.8894ZM158.997 156.3L189.156 50.4718L141.071 36.7681L110.911 142.596L158.997 156.3ZM168.233 68.4246L206.274 63.6414L200.036 14.032L161.995 18.8152L168.233 68.4246ZM282.563 56.7193L258.9 64.7865L258.915 64.8297L258.93 64.8729L282.563 56.7193ZM281.37 112.567L305.35 119.638L305.377 119.546L305.403 119.453L281.37 112.567ZM254.952 162.229L235.596 146.407L235.593 146.411L254.952 162.229ZM179.253 165.163L155.636 173.364L155.643 173.385L155.651 173.406L179.253 165.163ZM180.825 109.717L204.799 116.804L204.808 116.775L204.817 116.745L180.825 109.717ZM207.053 59.8541L187.641 44.1012L187.627 44.1184L187.613 44.1356L207.053 59.8541ZM223.166 98.0213L243.753 112.204L243.826 112.098L243.898 111.991L223.166 98.0213ZM209.901 124.805L185.925 117.725L185.876 117.89L185.829 118.056L209.901 124.805ZM211.318 150.636L191.079 165.311L191.187 165.462L191.298 165.61L211.318 150.636ZM243.698 145.693L224.29 129.934L224.273 129.954L224.257 129.974L243.698 145.693ZM254.464 124.31L230.414 117.486L230.403 117.523L230.392 117.561L254.464 124.31ZM256.845 95.4591L281.662 92.4362L281.638 92.2427L281.612 92.0497L256.845 95.4591ZM253.223 57.8414C254.337 57.873 254.887 58.0403 255.063 58.1031C255.208 58.1552 255.292 58.201 255.429 58.3147C255.718 58.5558 257.274 60.0161 258.9 64.7865L306.226 48.6521C302.561 37.9017 296.699 27.6237 287.444 19.9088C277.886 11.9412 266.485 8.19728 254.64 7.86145L253.223 57.8414ZM258.93 64.8729C260.605 69.7287 261.516 75.4511 261.322 82.2995L311.302 83.7165C311.646 71.562 310.058 59.7587 306.196 48.5657L258.93 64.8729ZM261.322 82.2995C261.134 88.9374 259.913 96.6932 257.338 105.681L305.403 119.453C308.9 107.251 310.973 95.3003 311.302 83.7165L261.322 82.2995ZM257.391 105.497C253.029 120.293 245.83 133.888 235.596 146.407L274.309 178.051C288.635 160.525 299.047 141.013 305.35 119.638L257.391 105.497ZM235.593 146.411C223.138 161.655 214.26 164.202 208.984 164.052L207.567 214.032C234.569 214.798 256.809 199.469 274.312 178.047L235.593 146.411ZM208.984 164.052C207.814 164.019 207.205 163.844 206.97 163.761C206.765 163.688 206.632 163.614 206.459 163.471C206.103 163.178 204.516 161.678 202.855 156.921L155.651 173.406C159.411 184.173 165.373 194.415 174.691 202.082C184.296 209.985 195.712 213.696 207.567 214.032L208.984 164.052ZM202.87 156.963C201.36 152.615 200.474 147.191 200.667 140.369L150.687 138.952C150.349 150.873 151.847 162.451 155.636 173.364L202.87 156.963ZM200.667 140.369C200.857 133.685 202.119 125.869 204.799 116.804L156.851 102.629C153.191 115.008 151.022 127.155 150.687 138.952L200.667 140.369ZM204.817 116.745C209.207 101.756 216.382 88.0786 226.494 75.5725L187.613 44.1356C173.426 61.6821 163.115 81.246 156.833 102.689L204.817 116.745ZM226.466 75.6069C238.903 60.2798 247.835 57.6886 253.223 57.8414L254.64 7.86145C227.488 7.09168 205.168 22.5022 187.641 44.1012L226.466 75.6069ZM246.238 56.0802C224.981 55.4776 210.712 71.7639 202.433 84.0518L243.898 111.991C245.343 109.847 246.596 108.243 247.631 107.074C248.676 105.896 249.37 105.308 249.671 105.079C250.261 104.632 248.475 106.164 244.821 106.06L246.238 56.0802ZM202.578 83.8386C195.125 94.6575 189.4 105.956 185.925 117.725L233.878 131.884C235.59 126.085 238.708 119.528 243.753 112.204L202.578 83.8386ZM185.829 118.056C184.118 124.159 182.973 130.443 182.794 136.737L232.774 138.153C232.81 136.898 233.075 134.755 233.973 131.553L185.829 118.056ZM182.794 136.737C182.527 146.182 184.598 156.374 191.079 165.311L231.558 135.961C232.213 136.865 232.554 137.719 232.703 138.276C232.838 138.779 232.756 138.808 232.774 138.153L182.794 136.737ZM191.298 165.61C199.289 176.294 210.916 181.301 222.944 181.642L224.361 131.662C224.661 131.671 225.893 131.768 227.526 132.565C229.236 133.399 230.531 134.585 231.338 135.663L191.298 165.61ZM222.944 181.642C240.415 182.138 253.888 172.852 263.138 161.411L224.257 129.974C222.743 131.848 221.957 132.231 222.137 132.132C222.249 132.071 222.551 131.927 223.017 131.811C223.49 131.695 223.96 131.651 224.361 131.662L222.944 181.642ZM263.106 161.451C270.353 152.525 275.401 142.242 278.536 131.058L230.392 117.561C228.89 122.919 226.761 126.891 224.29 129.934L263.106 161.451ZM278.515 131.133C282.128 118.399 283.246 105.436 281.662 92.4362L232.029 98.4821C232.77 104.566 232.3 110.836 230.414 117.486L278.515 131.133ZM281.612 92.0497C280.667 85.1834 278.449 76.6617 272.696 69.3464C266.096 60.9544 256.571 56.3732 246.238 56.0802L244.821 106.06C243.194 106.014 240.986 105.629 238.636 104.462C236.269 103.287 234.533 101.704 233.393 100.254C231.412 97.7352 231.728 96.3194 232.079 98.8686L281.612 92.0497ZM414.984 44.8423L438.117 54.3227L454.357 14.6948L411.865 20.0376L414.984 44.8423ZM371.878 180.003L375.36 204.76L392.497 202.35L396.276 185.461L371.878 180.003ZM327.936 186.182L303.143 182.971L298.928 215.507L331.417 210.939L327.936 186.182ZM337.191 114.736L361.984 117.948L313.273 107.459L337.191 114.736ZM317.152 180.601L320.956 205.31L336.494 202.918L341.07 187.878L317.152 180.601ZM275.351 187.036L250.652 183.169L245.363 216.947L279.155 211.745L275.351 187.036ZM288.347 52.5847L284.391 27.8997L263.877 31.1872L263.354 51.9558L288.347 52.5847ZM325.64 46.6079L350.469 49.53L354.334 16.6904L321.684 21.9229L325.64 46.6079ZM315.602 131.905L290.773 128.982L339.56 139.047L315.602 131.905ZM343.672 37.7404L340.737 12.9132L324.411 14.8433L319.714 30.5984L343.672 37.7404ZM363.669 35.3764L388.426 38.8579L392.942 6.74188L360.734 10.5493L363.669 35.3764ZM346.783 155.454L322.026 151.972L370.826 162.306L346.783 155.454ZM376.943 49.6255L373.824 24.8208L357.429 26.8823L352.9 42.7737L376.943 49.6255ZM391.851 35.3619C372.48 82.629 357.664 129.028 347.481 174.546L396.276 185.461C405.783 142.959 419.704 99.2511 438.117 54.3227L391.851 35.3619ZM368.397 155.247L324.455 161.426L331.417 210.939L375.36 204.76L368.397 155.247ZM352.729 189.394L361.984 117.948L312.398 111.524L303.143 182.971L352.729 189.394ZM313.273 107.459L293.235 173.324L341.07 187.878L361.108 122.013L313.273 107.459ZM313.348 155.892L271.547 162.327L279.155 211.745L320.956 205.31L313.348 155.892ZM300.05 190.903C307.82 141.281 312.278 95.3656 313.339 53.2136L263.354 51.9558C262.358 91.5491 258.152 135.268 250.652 183.169L300.05 190.903ZM292.303 77.2697L329.596 71.2929L321.684 21.9229L284.391 27.8997L292.303 77.2697ZM300.812 43.6858L290.773 128.982L340.43 134.827L350.469 49.53L300.812 43.6858ZM339.56 139.047L367.63 44.8823L319.714 30.5984L291.644 124.763L339.56 139.047ZM346.607 62.5675L366.604 60.2036L360.734 10.5493L340.737 12.9132L346.607 62.5675ZM338.913 31.895L322.026 151.972L371.539 158.935L388.426 38.8579L338.913 31.895ZM370.826 162.306L400.985 56.4774L352.9 42.7737L322.74 148.602L370.826 162.306ZM380.061 74.4302L418.103 69.647L411.865 20.0376L373.824 24.8208L380.061 74.4302Z" fill="black"/>
<path d="M58.664 206.661C52.8965 223.643 48.7313 240.15 46.1684 256.181L30.5158 259.375L32.2592 233.498L26.5174 257.608L11.6402 260.846C13.3038 243.156 13.8678 226.956 13.3323 212.247L26.6002 209.274L24.8821 240.145L32.8831 205.688L40.016 204.396L36.6075 247.916L45.1009 209.222L58.664 206.661ZM57.0155 209.389L69.0279 206.739C64.7797 225.687 62.1347 242.073 61.0931 255.897L50.0223 259.36L57.0155 209.389ZM69.832 209.174L81.9077 206.311C81.8622 207.766 81.8838 209.829 81.9725 212.5C82.1842 218.871 82.581 224.463 83.1629 229.274C83.489 232.03 83.9143 234.244 84.4388 235.915L88.307 208.35L100.319 205.699C96.0711 224.648 93.4262 241.034 92.3846 254.857L81.3841 258.318C81.3341 258.226 81.0024 257.416 80.3888 255.889L76.3891 245.61C75.724 243.943 75.3368 242.877 75.2276 242.412C74.4274 247.973 73.8326 253.363 73.4431 258.582L62.3114 262.328L69.832 209.174ZM98.9357 207.926C104.264 205.967 108.802 204.925 112.55 204.801C116.767 204.66 120.013 205.655 122.288 207.784C125.437 210.821 127.086 214.589 127.236 219.086C127.29 220.726 127.137 222.467 126.776 224.308C125.223 232.614 121.153 239.972 114.565 246.382C107.976 252.744 100.529 256.603 92.2259 257.958C92.2854 256.924 92.6753 253.839 93.3958 248.703L97.9439 216.19C98.58 211.338 98.9106 208.584 98.9357 207.926ZM109.37 219.188C107.52 228.442 106.169 237.187 105.317 245.422C108.039 242.659 110.443 239.483 112.528 235.897C115.102 231.496 116.338 227.75 116.235 224.658C116.103 220.676 113.814 218.852 109.37 219.188ZM146.637 201.065C151.603 200.9 155.208 203.548 157.453 209.007C158.626 211.829 159.269 214.95 159.382 218.37C159.491 221.65 159.118 225.227 158.261 229.101C156.746 235.717 153.948 241.861 149.869 247.53C144.893 254.449 139.5 258.005 133.691 258.198C128.678 258.365 125.025 255.719 122.733 250.261C121.612 247.578 120.996 244.55 120.884 241.177C120.773 237.85 121.169 234.226 122.07 230.303C123.584 223.64 126.358 217.474 130.391 211.806C135.365 204.84 140.781 201.26 146.637 201.065ZM144.686 218.577C142.109 218.663 139.556 220.858 137.025 225.163C134.981 228.561 133.59 231.867 132.852 235.081C132.487 236.781 132.326 238.311 132.371 239.669C132.435 241.59 132.956 243.144 133.933 244.331C135.056 245.654 136.578 246.283 138.499 246.22C141.122 246.133 143.442 244.672 145.458 241.838C147.072 239.58 148.204 236.939 148.854 233.916C149.627 230.373 149.699 226.9 149.07 223.497C148.396 220.142 146.935 218.502 144.686 218.577ZM202.613 201.879C196.845 218.861 192.68 235.368 190.117 251.399L174.465 254.593L176.208 228.716L170.466 252.826L155.589 256.064C157.252 238.374 157.817 222.174 157.281 207.465L170.549 204.492L168.831 235.363L176.832 200.906L183.965 199.614L180.556 243.134L189.05 204.44L202.613 201.879ZM230.321 198.285C235.287 198.12 238.893 200.768 241.138 206.227C242.31 209.049 242.953 212.17 243.067 215.59C243.176 218.87 242.802 222.447 241.946 226.321C240.431 232.937 237.633 239.081 233.553 244.75C228.577 251.669 223.185 255.225 217.375 255.418C212.362 255.585 208.71 252.939 206.418 247.481C205.297 244.798 204.681 241.77 204.569 238.397C204.458 235.07 204.854 231.446 205.755 227.523C207.269 220.86 210.043 214.694 214.075 209.026C219.05 202.06 224.465 198.48 230.321 198.285ZM228.371 215.797C225.794 215.883 223.24 218.078 220.71 222.383C218.665 225.781 217.274 229.087 216.537 232.301C216.171 234.001 216.011 235.531 216.056 236.89C216.12 238.81 216.641 240.364 217.618 241.551C218.741 242.874 220.263 243.504 222.183 243.44C224.807 243.353 227.127 241.892 229.143 239.058C230.757 236.8 231.888 234.159 232.538 231.136C233.312 227.593 233.384 224.12 232.755 220.717C232.081 217.362 230.619 215.722 228.371 215.797ZM253.495 213.344C253.21 214.667 252.972 215.965 252.78 217.238L252.062 221.06L264.274 218.052L263.968 227.911C259.168 228.821 254.652 229.839 250.422 230.964C249.506 237.279 248.822 243.516 248.37 249.675L236.456 253.167L243.004 202.507L266.925 198.336L266.514 211.364C261.843 211.942 257.503 212.602 253.495 213.344ZM321.895 197.917C316.128 214.899 311.963 231.405 309.4 247.437L293.747 250.63L295.491 224.753L289.749 248.863L274.872 252.101C276.535 234.411 277.099 218.212 276.564 203.503L289.832 200.529L288.113 231.4L296.114 196.944L303.247 195.652L299.839 239.172L308.332 200.478L321.895 197.917ZM337.849 194.713C342.815 194.548 346.42 197.196 348.665 202.655C349.838 205.477 350.481 208.598 350.594 212.018C350.703 215.298 350.33 218.875 349.473 222.749C347.958 229.365 345.16 235.509 341.081 241.178C336.105 248.097 330.712 251.653 324.903 251.846C319.89 252.013 316.237 249.367 313.945 243.909C312.824 241.226 312.208 238.198 312.096 234.825C311.985 231.498 312.381 227.874 313.282 223.951C314.796 217.288 317.57 211.122 321.603 205.454C326.577 198.488 331.993 194.908 337.849 194.713ZM335.898 212.225C333.321 212.311 330.768 214.506 328.237 218.811C326.193 222.209 324.802 225.515 324.064 228.729C323.699 230.429 323.538 231.959 323.583 233.317C323.647 235.238 324.168 236.792 325.145 237.979C326.268 239.302 327.79 239.931 329.711 239.868C332.334 239.781 334.654 238.32 336.67 235.486C338.284 233.228 339.416 230.587 340.066 227.564C340.839 224.021 340.911 220.548 340.282 217.145C339.608 213.79 338.147 212.15 335.898 212.225ZM351.044 199.551C358.326 197.105 364.31 195.804 368.995 195.648C375.319 195.438 378.531 197.536 378.631 201.941C378.794 208.267 375.023 214.748 367.317 221.382C368.032 223.141 370.935 228.649 376.027 237.907C373.665 240.237 370.097 243.662 365.323 248.182L357.159 229.036L357.089 229.039C356.168 235.213 355.513 240.91 355.124 246.129L344.123 249.59C344.183 248.556 344.595 245.423 345.359 240.192L351.044 199.551ZM360.267 210.36C359.899 211.967 359.577 213.573 359.302 215.176L358.477 219.988C360.088 219.09 361.668 217.935 363.216 216.524C364.99 214.87 366.158 213.307 366.718 211.834C366.939 211.405 367.042 211.003 367.03 210.628C366.996 209.597 366.299 209.105 364.941 209.15C363.863 209.186 362.305 209.589 360.267 210.36ZM378.051 198.724L390.064 196.074C387.122 209.163 384.919 221.22 383.456 232.243L395.761 229.935L395.141 243.041C388.789 243.815 380.761 245.699 371.058 248.695L378.051 198.724ZM398.518 197.974C403.847 196.015 408.385 194.973 412.133 194.849C416.349 194.708 419.595 195.703 421.87 197.832C425.02 200.869 426.669 204.637 426.818 209.134C426.873 210.774 426.72 212.515 426.359 214.356C424.806 222.662 420.735 230.02 414.147 236.43C407.558 242.792 400.112 246.651 391.808 248.006C391.868 246.972 392.258 243.887 392.978 238.751L397.526 206.238C398.163 201.386 398.493 198.632 398.518 197.974ZM408.953 209.235C407.103 218.49 405.752 227.234 404.899 235.47C407.622 232.707 410.025 229.531 412.111 225.945C414.685 221.544 415.92 217.798 415.818 214.706C415.685 210.724 413.397 208.9 408.953 209.235Z" fill="#FFCB14"/>
<path d="M58.664 206.661L68.1328 209.877L73.6417 193.656L56.8085 196.835L58.664 206.661ZM46.1684 256.181L48.1674 265.979L54.9502 264.596L56.043 257.76L46.1684 256.181ZM30.5158 259.375L20.5384 258.702L19.6563 271.796L32.5147 269.173L30.5158 259.375ZM32.2592 233.498L42.2366 234.17L22.5312 231.181L32.2592 233.498ZM26.5174 257.608L28.6441 267.379L34.7886 266.042L36.2454 259.925L26.5174 257.608ZM11.6402 260.846L1.68411 259.91L0.403651 273.526L13.7668 270.617L11.6402 260.846ZM13.3323 212.247L11.1455 202.489L3.03653 204.307L3.33888 212.611L13.3323 212.247ZM26.6002 209.274L36.5848 209.83L37.3198 196.624L24.4134 199.516L26.6002 209.274ZM24.8821 240.145L14.8975 239.589L34.6229 242.407L24.8821 240.145ZM32.8831 205.688L31.1005 195.848L24.6297 197.021L23.1423 203.426L32.8831 205.688ZM40.016 204.396L49.9855 205.177L50.9984 192.244L38.2334 194.556L40.016 204.396ZM36.6075 247.916L26.638 247.135L46.3749 250.06L36.6075 247.916ZM45.1009 209.222L43.2454 199.396L36.7505 200.622L35.3334 207.078L45.1009 209.222ZM49.1951 203.445C43.2651 220.906 38.9543 237.961 36.2938 254.603L56.043 257.76C58.5083 242.339 62.5279 226.38 68.1328 209.877L49.1951 203.445ZM44.1695 246.383L28.5169 249.576L32.5147 269.173L48.1674 265.979L44.1695 246.383ZM40.4932 260.047L42.2366 234.17L22.2818 232.826L20.5384 258.702L40.4932 260.047ZM22.5312 231.181L16.7895 255.291L36.2454 259.925L41.9871 235.814L22.5312 231.181ZM24.3908 247.837L9.51354 251.075L13.7668 270.617L28.6441 267.379L24.3908 247.837ZM21.5963 261.782C23.2925 243.745 23.8798 227.104 23.3256 211.883L3.33888 212.611C3.85579 226.809 3.31507 242.567 1.68411 259.91L21.5963 261.782ZM15.5191 222.005L28.787 219.032L24.4134 199.516L11.1455 202.489L15.5191 222.005ZM16.6157 208.718L14.8975 239.589L34.8666 240.701L36.5848 209.83L16.6157 208.718ZM34.6229 242.407L42.6239 207.95L23.1423 203.426L15.1412 237.883L34.6229 242.407ZM34.6657 215.528L41.7986 214.236L38.2334 194.556L31.1005 195.848L34.6657 215.528ZM30.0465 203.615L26.638 247.135L46.5769 248.697L49.9855 205.177L30.0465 203.615ZM46.3749 250.06L54.8684 211.366L35.3334 207.078L26.84 245.772L46.3749 250.06ZM46.9564 219.048L60.5195 216.487L56.8085 196.835L43.2454 199.396L46.9564 219.048ZM57.0155 209.389L54.861 199.624L48.0751 201.121L47.112 208.003L57.0155 209.389ZM69.0279 206.739L78.7857 208.927L82.2249 193.587L66.8734 196.974L69.0279 206.739ZM61.0931 255.897L64.0787 265.44L70.555 263.415L71.0648 256.648L61.0931 255.897ZM50.0223 259.36L40.1188 257.974L37.9291 273.621L53.0079 268.904L50.0223 259.36ZM59.17 219.154L71.1824 216.504L66.8734 196.974L54.861 199.624L59.17 219.154ZM59.2701 204.551C54.9544 223.801 52.2106 240.69 51.1214 255.145L71.0648 256.648C72.0589 243.456 74.605 227.574 78.7857 208.927L59.2701 204.551ZM58.1075 246.353L47.0367 249.816L53.0079 268.904L64.0787 265.44L58.1075 246.353ZM59.9258 260.746L66.919 210.775L47.112 208.003L40.1188 257.974L59.9258 260.746ZM69.832 209.174L67.5247 199.444L60.8864 201.018L59.9306 207.773L69.832 209.174ZM81.9077 206.311L91.9028 206.623L92.3105 193.567L79.6004 196.581L81.9077 206.311ZM83.1629 229.274L93.0937 228.099L93.0922 228.086L93.0906 228.073L83.1629 229.274ZM84.4388 235.915L74.8978 238.91L94.3418 237.305L84.4388 235.915ZM88.307 208.35L86.1525 198.584L79.3693 200.081L78.404 206.96L88.307 208.35ZM100.319 205.699L110.077 207.887L113.516 192.547L98.1649 195.934L100.319 205.699ZM92.3846 254.857L95.3857 264.396L101.847 262.363L102.356 255.608L92.3846 254.857ZM81.3841 258.318L72.5932 263.085L76.5223 270.331L84.3852 267.857L81.3841 258.318ZM80.3888 255.889L71.0695 259.515L71.0892 259.566L71.1095 259.616L80.3888 255.889ZM76.3891 245.61L85.7084 241.983L85.6927 241.943L85.6767 241.903L76.3891 245.61ZM75.2276 242.412L84.9629 240.126L65.3295 240.988L75.2276 242.412ZM73.4431 258.582L76.633 268.059L82.9217 265.943L83.4154 259.326L73.4431 258.582ZM62.3114 262.328L52.41 260.927L50.1393 276.976L65.5013 271.806L62.3114 262.328ZM72.1393 218.905L84.2149 216.041L79.6004 196.581L67.5247 199.444L72.1393 218.905ZM71.9125 205.999C71.857 207.777 71.887 210.092 71.9781 212.832L91.967 212.168C91.8806 209.567 91.8674 207.756 91.9028 206.623L71.9125 205.999ZM71.9781 212.832C72.1966 219.409 72.6096 225.302 73.2353 230.475L93.0906 228.073C92.5524 223.624 92.1719 218.333 91.967 212.168L71.9781 212.832ZM73.2322 230.449C73.5943 233.51 74.1119 236.406 74.8978 238.91L93.9798 232.92C93.7167 232.082 93.3837 230.551 93.0937 228.099L73.2322 230.449ZM94.3418 237.305L98.21 209.739L78.404 206.96L74.5359 234.525L94.3418 237.305ZM90.4615 218.115L102.474 215.464L98.1649 195.934L86.1525 198.584L90.4615 218.115ZM90.5616 203.512C86.2459 222.761 83.5021 239.65 82.4129 254.106L102.356 255.608C103.35 242.417 105.896 226.534 110.077 207.887L90.5616 203.512ZM89.3835 245.318L78.383 248.779L84.3852 267.857L95.3857 264.396L89.3835 245.318ZM90.1749 253.551C90.2554 253.7 90.3152 253.819 90.3469 253.883C90.382 253.955 90.4094 254.013 90.427 254.05C90.4612 254.123 90.4851 254.177 90.4937 254.196C90.5115 254.236 90.5168 254.249 90.5029 254.217C90.4774 254.156 90.429 254.04 90.3513 253.85C90.1986 253.478 89.9724 252.919 89.6681 252.161L71.1095 259.616C71.4188 260.386 71.6653 260.996 71.8443 261.433C71.8474 261.44 72.2325 262.419 72.5932 263.085L90.1749 253.551ZM89.7082 252.262L85.7084 241.983L67.0697 249.236L71.0695 259.515L89.7082 252.262ZM85.6767 241.903C85.3634 241.118 85.1427 240.542 84.999 240.146C84.9273 239.949 84.8892 239.836 84.8742 239.79C84.8484 239.71 84.8989 239.854 84.9629 240.126L65.4923 244.698C65.8091 246.047 66.5284 247.88 67.1015 249.316L85.6767 241.903ZM65.3295 240.988C64.4992 246.758 63.8785 252.375 63.4709 257.838L83.4154 259.326C83.7867 254.35 84.3556 249.188 85.1256 243.836L65.3295 240.988ZM70.2532 249.104L59.1215 252.851L65.5013 271.806L76.633 268.059L70.2532 249.104ZM72.2128 263.729L79.7334 210.575L59.9306 207.773L52.41 260.927L72.2128 263.729ZM98.9357 207.926L95.4847 198.541L89.1981 200.852L88.9429 207.545L98.9357 207.926ZM122.288 207.784L129.23 200.586L129.175 200.533L129.12 200.482L122.288 207.784ZM126.776 224.308L116.963 222.384L116.955 222.427L116.947 222.47L126.776 224.308ZM114.565 246.382L121.511 253.575L121.525 253.562L121.538 253.549L114.565 246.382ZM92.2259 257.958L82.2424 257.384L81.5262 269.835L93.836 267.827L92.2259 257.958ZM93.3958 248.703L103.299 250.092L103.299 250.088L93.3958 248.703ZM97.9439 216.19L107.847 217.576L107.853 217.533L107.859 217.49L97.9439 216.19ZM109.37 219.188L108.618 209.216L101.052 209.787L99.564 217.227L109.37 219.188ZM105.317 245.422L95.37 244.393L92.4365 272.75L112.441 252.44L105.317 245.422ZM112.528 235.897L103.896 230.847L103.89 230.859L103.883 230.871L112.528 235.897ZM102.387 217.312C107.174 215.552 110.598 214.871 112.882 214.795L112.218 194.806C107.006 194.979 101.354 196.382 95.4847 198.541L102.387 217.312ZM112.882 214.795C114.144 214.753 114.871 214.896 115.218 215.003C115.517 215.094 115.527 215.152 115.455 215.086L129.12 200.482C124.302 195.974 118.121 194.61 112.218 194.806L112.882 214.795ZM115.345 214.981C116.565 216.158 117.176 217.437 117.241 219.418L137.23 218.754C136.997 211.741 134.309 205.485 129.23 200.586L115.345 214.981ZM117.241 219.418C117.267 220.203 117.199 221.182 116.963 222.384L136.589 226.232C137.076 223.752 137.313 221.249 137.23 218.754L117.241 219.418ZM116.947 222.47C115.806 228.568 112.836 234.111 107.591 239.214L121.538 253.549C129.469 245.833 134.64 236.66 136.606 226.146L116.947 222.47ZM107.618 239.188C102.358 244.268 96.7301 247.091 90.6159 248.088L93.836 267.827C104.328 266.116 113.594 261.221 121.511 253.575L107.618 239.188ZM102.209 258.532C102.209 258.539 102.221 258.36 102.273 257.883C102.321 257.445 102.391 256.863 102.484 256.123C102.671 254.645 102.941 252.641 103.299 250.092L83.4928 247.314C82.8019 252.239 82.3315 255.834 82.2424 257.384L102.209 258.532ZM103.299 250.088L107.847 217.576L88.0403 214.805L83.4923 247.318L103.299 250.088ZM107.859 217.49C108.451 212.977 108.881 209.562 108.928 208.307L88.9429 207.545C88.9508 207.339 88.96 207.33 88.9135 207.776C88.8766 208.129 88.8199 208.629 88.7402 209.294C88.5813 210.618 88.345 212.478 88.0287 214.89L107.859 217.49ZM99.564 217.227C97.6607 226.748 96.2585 235.805 95.37 244.393L115.264 246.452C116.079 238.568 117.379 230.135 119.176 221.148L99.564 217.227ZM112.441 252.44C115.791 249.039 118.696 245.184 121.173 240.922L103.883 230.871C102.19 233.783 100.287 236.279 98.1925 238.405L112.441 252.44ZM121.16 240.946C124.132 235.864 126.423 230.163 126.23 224.326L106.241 224.99C106.252 225.337 106.072 227.128 103.896 230.847L121.16 240.946ZM126.23 224.326C126.103 220.522 124.834 215.815 120.651 212.483C116.719 209.35 112.077 208.955 108.618 209.216L110.122 229.159C111.107 229.085 109.832 229.434 108.188 228.124C106.294 226.615 106.235 224.812 106.241 224.99L126.23 224.326ZM157.453 209.007L148.205 212.81L148.212 212.827L148.219 212.844L157.453 209.007ZM158.261 229.101L168.009 231.334L168.018 231.296L168.026 231.259L158.261 229.101ZM149.869 247.53L141.752 241.69L141.75 241.692L149.869 247.53ZM122.733 250.261L113.506 254.116L113.51 254.124L113.513 254.132L122.733 250.261ZM122.07 230.303L131.816 232.543L131.819 232.531L131.822 232.519L122.07 230.303ZM130.391 211.806L122.253 205.994L122.248 206.001L122.242 206.009L130.391 211.806ZM137.025 225.163L145.594 230.319L145.62 230.275L145.646 230.23L137.025 225.163ZM132.852 235.081L123.106 232.844L123.09 232.911L123.076 232.979L132.852 235.081ZM133.933 244.331L126.214 250.688L126.261 250.745L126.309 250.802L133.933 244.331ZM145.458 241.838L137.322 236.024L137.316 236.032L137.31 236.041L145.458 241.838ZM148.854 233.916L139.084 231.783L139.08 231.799L139.077 231.814L148.854 233.916ZM149.07 223.497L158.904 221.679L158.89 221.603L158.874 221.526L149.07 223.497ZM146.969 211.06C147.277 211.049 147.372 211.088 147.324 211.074C147.265 211.057 147.19 211.019 147.147 210.988C147.068 210.93 147.563 211.249 148.205 212.81L166.702 205.204C165.099 201.306 162.668 197.572 158.984 194.867C155.172 192.068 150.766 190.923 146.305 191.071L146.969 211.06ZM148.219 212.844C148.877 214.428 149.309 216.343 149.388 218.702L169.377 218.038C169.228 213.557 168.375 209.231 166.688 205.171L148.219 212.844ZM149.388 218.702C149.464 220.993 149.209 223.722 148.497 226.943L168.026 231.259C169.026 226.731 169.519 222.307 169.377 218.038L149.388 218.702ZM148.514 226.868C147.305 232.147 145.076 237.07 141.752 241.69L157.986 253.371C162.821 246.651 166.187 239.287 168.009 231.334L148.514 226.868ZM141.75 241.692C137.706 247.315 134.823 248.155 133.358 248.204L134.023 268.193C144.176 267.856 152.079 261.584 157.987 253.369L141.75 241.692ZM133.358 248.204C133.03 248.215 132.912 248.175 132.937 248.182C132.973 248.192 133.03 248.22 133.058 248.241C133.112 248.279 132.607 247.945 131.954 246.389L113.513 254.132C115.152 258.035 117.619 261.753 121.325 264.437C125.152 267.209 129.56 268.341 134.023 268.193L133.358 248.204ZM131.96 246.406C131.375 245.005 130.957 243.198 130.878 240.845L110.889 241.509C111.035 245.901 111.85 250.151 113.506 254.116L131.96 246.406ZM130.878 240.845C130.802 238.541 131.07 235.792 131.816 232.543L112.324 228.063C111.268 232.66 110.745 237.16 110.889 241.509L130.878 240.845ZM131.822 232.519C133.038 227.167 135.258 222.215 138.539 217.603L122.242 206.009C117.458 212.733 114.131 220.113 112.319 228.088L131.822 232.519ZM138.528 217.617C142.564 211.966 145.465 211.11 146.969 211.06L146.305 191.071C136.096 191.41 128.166 197.714 122.253 205.994L138.528 217.617ZM144.354 208.583C136.138 208.856 131.126 215.465 128.404 220.096L145.646 230.23C146.1 229.458 146.49 228.892 146.804 228.49C147.122 228.085 147.314 227.908 147.357 227.871C147.399 227.835 147.226 227.994 146.82 228.174C146.39 228.366 145.771 228.547 145.018 228.572L144.354 208.583ZM128.457 220.007C125.975 224.133 124.121 228.417 123.106 232.844L142.599 237.317C143.058 235.317 143.987 232.99 145.594 230.319L128.457 220.007ZM123.076 232.979C122.583 235.268 122.298 237.635 122.377 240.002L142.366 239.337C142.354 238.986 142.39 238.294 142.629 237.183L123.076 232.979ZM122.377 240.002C122.495 243.566 123.515 247.411 126.214 250.688L141.653 237.974C141.991 238.385 142.19 238.794 142.292 239.099C142.387 239.383 142.371 239.492 142.366 239.337L122.377 240.002ZM126.309 250.802C129.637 254.724 134.233 256.367 138.831 256.214L138.167 236.225C138.393 236.218 138.983 236.242 139.739 236.555C140.527 236.881 141.147 237.376 141.558 237.86L126.309 250.802ZM138.831 256.214C145.526 255.992 150.419 252.115 153.607 247.635L137.31 236.041C136.864 236.668 136.68 236.721 136.878 236.596C136.986 236.529 137.169 236.433 137.421 236.354C137.676 236.274 137.933 236.233 138.167 236.225L138.831 256.214ZM153.595 247.652C156.089 244.161 157.726 240.224 158.63 236.018L139.077 231.814C138.681 233.654 138.055 234.999 137.322 236.024L153.595 247.652ZM158.624 236.049C159.667 231.269 159.786 226.452 158.904 221.679L139.237 225.314C139.613 227.347 139.587 229.476 139.084 231.783L158.624 236.049ZM158.874 221.526C158.365 218.994 157.329 215.786 154.934 213.098C152.174 210.001 148.361 208.45 144.354 208.583L145.018 228.572C144.305 228.595 143.356 228.486 142.338 228.056C141.313 227.624 140.534 227.001 140.003 226.404C139.069 225.356 139.101 224.645 139.266 225.467L158.874 221.526ZM202.613 201.879L212.082 205.095L217.59 188.874L200.757 192.053L202.613 201.879ZM190.117 251.399L192.116 261.198L198.899 259.814L199.992 252.978L190.117 251.399ZM174.465 254.593L164.487 253.92L163.605 267.014L176.463 264.391L174.465 254.593ZM176.208 228.716L186.185 229.388L166.48 226.399L176.208 228.716ZM170.466 252.826L172.593 262.597L178.737 261.26L180.194 255.143L170.466 252.826ZM155.589 256.064L145.633 255.128L144.352 268.744L157.716 265.835L155.589 256.064ZM157.281 207.465L155.094 197.707L146.985 199.525L147.288 207.829L157.281 207.465ZM170.549 204.492L180.533 205.048L181.268 191.842L168.362 194.734L170.549 204.492ZM168.831 235.363L158.846 234.807L178.572 237.625L168.831 235.363ZM176.832 200.906L175.049 191.067L168.578 192.239L167.091 198.644L176.832 200.906ZM183.965 199.614L193.934 200.395L194.947 187.462L182.182 189.774L183.965 199.614ZM180.556 243.134L170.587 242.353L190.324 245.278L180.556 243.134ZM189.05 204.44L187.194 194.614L180.699 195.84L179.282 202.296L189.05 204.44ZM193.144 198.663C187.214 216.124 182.903 233.179 180.243 249.821L199.992 252.978C202.457 237.557 206.477 221.598 212.082 205.095L193.144 198.663ZM188.118 241.601L172.466 244.795L176.463 264.391L192.116 261.198L188.118 241.601ZM184.442 255.265L186.185 229.388L166.231 228.044L164.487 253.92L184.442 255.265ZM166.48 226.399L160.738 250.509L180.194 255.143L185.936 231.033L166.48 226.399ZM168.34 243.055L153.462 246.293L157.716 265.835L172.593 262.597L168.34 243.055ZM165.545 257C167.241 238.963 167.829 222.322 167.274 207.101L147.288 207.829C147.805 222.027 147.264 237.785 145.633 255.128L165.545 257ZM159.468 217.223L172.736 214.25L168.362 194.734L155.094 197.707L159.468 217.223ZM160.564 203.936L158.846 234.807L178.815 235.919L180.533 205.048L160.564 203.936ZM178.572 237.625L186.573 203.168L167.091 198.644L159.09 233.101L178.572 237.625ZM178.614 210.746L185.747 209.454L182.182 189.774L175.049 191.067L178.614 210.746ZM173.995 198.833L170.587 242.353L190.526 243.915L193.934 200.395L173.995 198.833ZM190.324 245.278L198.817 206.584L179.282 202.296L170.789 240.99L190.324 245.278ZM190.905 214.267L204.468 211.705L200.757 192.053L187.194 194.614L190.905 214.267ZM241.138 206.227L231.889 210.03L231.896 210.047L231.903 210.064L241.138 206.227ZM241.946 226.321L251.694 228.554L251.702 228.516L251.711 228.479L241.946 226.321ZM233.553 244.75L225.436 238.91L225.435 238.912L233.553 244.75ZM206.418 247.481L197.191 251.336L197.195 251.344L197.198 251.352L206.418 247.481ZM205.755 227.523L215.501 229.763L215.504 229.751L215.507 229.739L205.755 227.523ZM214.075 209.026L205.937 203.214L205.932 203.221L205.927 203.229L214.075 209.026ZM220.71 222.383L229.278 227.539L229.305 227.495L229.331 227.45L220.71 222.383ZM216.537 232.301L206.79 230.064L206.775 230.131L206.76 230.199L216.537 232.301ZM217.618 241.551L209.899 247.908L209.946 247.965L209.994 248.022L217.618 241.551ZM229.143 239.058L221.007 233.244L221.001 233.252L220.995 233.261L229.143 239.058ZM232.538 231.136L222.768 229.003L222.765 229.019L222.762 229.034L232.538 231.136ZM232.755 220.717L242.589 218.899L242.574 218.823L242.559 218.746L232.755 220.717ZM230.653 208.28C230.961 208.269 231.056 208.308 231.009 208.294C230.949 208.277 230.875 208.239 230.832 208.208C230.753 208.15 231.247 208.469 231.889 210.03L250.387 202.424C248.784 198.526 246.353 194.792 242.669 192.087C238.857 189.288 234.451 188.143 229.989 188.291L230.653 208.28ZM231.903 210.064C232.561 211.648 232.994 213.563 233.073 215.922L253.062 215.258C252.913 210.777 252.06 206.451 250.373 202.391L231.903 210.064ZM233.073 215.922C233.149 218.213 232.894 220.942 232.182 224.163L251.711 228.479C252.711 223.952 253.203 219.527 253.062 215.258L233.073 215.922ZM232.199 224.088C230.989 229.367 228.761 234.29 225.436 238.91L241.671 250.591C246.506 243.871 249.872 236.507 251.694 228.554L232.199 224.088ZM225.435 238.912C221.391 244.535 218.508 245.375 217.043 245.424L217.707 265.413C227.861 265.076 235.764 258.804 241.672 250.589L225.435 238.912ZM217.043 245.424C216.715 245.435 216.597 245.395 216.622 245.402C216.658 245.412 216.714 245.44 216.743 245.461C216.796 245.499 216.291 245.165 215.638 243.609L197.198 251.352C198.837 255.255 201.304 258.973 205.01 261.657C208.836 264.429 213.244 265.561 217.707 265.413L217.043 245.424ZM215.645 243.626C215.06 242.225 214.641 240.418 214.563 238.065L194.574 238.729C194.72 243.122 195.534 247.371 197.191 251.336L215.645 243.626ZM214.563 238.065C214.487 235.761 214.754 233.012 215.501 229.763L196.009 225.283C194.953 229.88 194.43 234.38 194.574 238.729L214.563 238.065ZM215.507 229.739C216.723 224.387 218.942 219.435 222.224 214.823L205.927 203.229C201.143 209.953 197.816 217.333 196.004 225.308L215.507 229.739ZM222.213 214.837C226.249 209.186 229.149 208.33 230.653 208.28L229.989 188.291C219.781 188.63 211.851 194.934 205.937 203.214L222.213 214.837ZM228.039 205.803C219.823 206.076 214.811 212.685 212.089 217.316L229.331 227.45C229.785 226.678 230.175 226.112 230.489 225.71C230.807 225.305 230.998 225.128 231.042 225.091C231.084 225.055 230.911 225.214 230.505 225.394C230.075 225.586 229.456 225.767 228.703 225.792L228.039 205.803ZM212.142 217.227C209.659 221.353 207.806 225.637 206.79 230.064L226.284 234.537C226.743 232.537 227.671 230.21 229.278 227.539L212.142 217.227ZM206.76 230.199C206.268 232.488 205.983 234.855 206.062 237.222L226.051 236.558C226.039 236.206 226.075 235.514 226.314 234.403L206.76 230.199ZM206.062 237.222C206.18 240.786 207.2 244.631 209.899 247.908L225.338 235.194C225.676 235.605 225.874 236.014 225.977 236.319C226.072 236.603 226.056 236.712 226.051 236.558L206.062 237.222ZM209.994 248.022C213.322 251.944 217.918 253.587 222.515 253.434L221.851 233.445C222.078 233.438 222.668 233.462 223.424 233.775C224.212 234.101 224.832 234.596 225.242 235.081L209.994 248.022ZM222.515 253.434C229.211 253.212 234.104 249.335 237.291 244.855L220.995 233.261C220.548 233.888 220.365 233.941 220.563 233.816C220.671 233.749 220.854 233.653 221.106 233.574C221.361 233.494 221.618 233.453 221.851 233.445L222.515 253.434ZM237.28 244.872C239.774 241.381 241.411 237.444 242.315 233.238L222.762 229.034C222.366 230.874 221.739 232.219 221.007 233.244L237.28 244.872ZM242.308 233.269C243.352 228.489 243.471 223.672 242.589 218.899L222.922 222.534C223.297 224.567 223.272 226.696 222.768 229.003L242.308 233.269ZM242.559 218.746C242.05 216.215 241.014 213.006 238.619 210.318C235.859 207.221 232.046 205.67 228.039 205.803L228.703 225.792C227.989 225.815 227.041 225.706 226.023 225.276C224.997 224.844 224.219 224.221 223.688 223.624C222.754 222.576 222.786 221.865 222.951 222.687L242.559 218.746ZM253.495 213.344L251.672 203.512L245.119 204.726L243.718 211.243L253.495 213.344ZM252.78 217.238L262.608 219.082L262.641 218.907L262.667 218.731L252.78 217.238ZM252.062 221.06L242.234 219.216L239.369 234.487L254.455 230.77L252.062 221.06ZM264.274 218.052L274.269 218.362L274.677 205.189L261.882 208.342L264.274 218.052ZM263.968 227.911L265.831 237.736L273.715 236.242L273.964 228.221L263.968 227.911ZM250.422 230.964L247.851 221.3L241.472 222.997L240.525 229.529L250.422 230.964ZM248.37 249.675L251.182 259.272L257.836 257.322L258.343 250.407L248.37 249.675ZM236.456 253.167L226.538 251.885L224.576 267.068L239.268 262.763L236.456 253.167ZM243.004 202.507L241.286 192.656L234.031 193.921L233.086 201.225L243.004 202.507ZM266.925 198.336L276.921 198.651L277.308 186.374L265.208 188.484L266.925 198.336ZM266.514 211.364L267.741 221.289L276.239 220.238L276.509 211.68L266.514 211.364ZM243.718 211.243C243.392 212.757 243.116 214.257 242.892 215.744L262.667 218.731C262.827 217.672 263.028 216.578 263.271 215.446L243.718 211.243ZM242.951 215.394L242.234 219.216L261.891 222.904L262.608 219.082L242.951 215.394ZM254.455 230.77L266.666 227.761L261.882 208.342L249.67 211.351L254.455 230.77ZM254.279 217.742L253.973 227.601L273.964 228.221L274.269 218.362L254.279 217.742ZM262.106 218.086C257.094 219.036 252.341 220.106 247.851 221.3L252.992 240.628C256.964 239.571 261.241 238.606 265.831 237.736L262.106 218.086ZM240.525 229.529C239.577 236.07 238.866 242.541 238.397 248.943L258.343 250.407C258.777 244.491 259.435 238.489 260.318 232.399L240.525 229.529ZM245.558 240.079L233.644 243.57L239.268 262.763L251.182 259.272L245.558 240.079ZM246.373 254.448L252.921 203.789L233.086 201.225L226.538 251.885L246.373 254.448ZM244.722 212.358L268.643 208.187L265.208 188.484L241.286 192.656L244.722 212.358ZM256.93 198.02L256.519 211.049L276.509 211.68L276.921 198.651L256.93 198.02ZM265.288 201.44C260.447 202.038 255.906 202.727 251.672 203.512L255.317 223.177C259.101 222.476 263.24 221.845 267.741 221.289L265.288 201.44ZM321.895 197.917L331.364 201.132L336.873 184.912L320.04 188.09L321.895 197.917ZM309.4 247.437L311.399 257.235L318.182 255.851L319.274 249.015L309.4 247.437ZM293.747 250.63L283.77 249.958L282.888 263.052L295.746 260.428L293.747 250.63ZM295.491 224.753L305.468 225.426L285.763 222.437L295.491 224.753ZM289.749 248.863L291.875 258.635L298.02 257.297L299.477 251.18L289.749 248.863ZM274.872 252.101L264.915 251.165L263.635 264.781L276.998 261.873L274.872 252.101ZM276.564 203.503L274.377 193.745L266.268 195.562L266.57 203.867L276.564 203.503ZM289.832 200.529L299.816 201.085L300.551 187.879L287.645 190.771L289.832 200.529ZM288.113 231.4L278.129 230.845L297.854 233.662L288.113 231.4ZM296.114 196.944L294.332 187.104L287.861 188.276L286.374 194.682L296.114 196.944ZM303.247 195.652L313.217 196.432L314.23 183.499L301.465 185.812L303.247 195.652ZM299.839 239.172L289.869 238.391L309.606 241.316L299.839 239.172ZM308.332 200.478L306.477 190.651L299.982 191.878L298.565 198.334L308.332 200.478ZM312.426 194.701C306.496 212.161 302.186 229.216 299.525 245.858L319.274 249.015C321.74 233.594 325.759 217.636 331.364 201.132L312.426 194.701ZM307.401 237.639L291.748 240.832L295.746 260.428L311.399 257.235L307.401 237.639ZM303.725 251.302L305.468 225.426L285.513 224.081L283.77 249.958L303.725 251.302ZM285.763 222.437L280.021 246.547L299.477 251.18L305.218 227.07L285.763 222.437ZM287.622 239.092L272.745 242.33L276.998 261.873L291.875 258.635L287.622 239.092ZM284.828 253.038C286.524 235.001 287.111 218.36 286.557 203.139L266.57 203.867C267.087 218.064 266.546 233.822 264.915 251.165L284.828 253.038ZM278.75 213.261L292.018 210.287L287.645 190.771L274.377 193.745L278.75 213.261ZM279.847 199.974L278.129 230.845L298.098 231.956L299.816 201.085L279.847 199.974ZM297.854 233.662L305.855 199.206L286.374 194.682L278.373 229.138L297.854 233.662ZM297.897 206.784L305.03 205.491L301.465 185.812L294.332 187.104L297.897 206.784ZM293.278 194.871L289.869 238.391L309.808 239.952L313.217 196.432L293.278 194.871ZM309.606 241.316L318.1 202.622L298.565 198.334L290.071 237.028L309.606 241.316ZM310.188 210.304L323.751 207.743L320.04 188.09L306.477 190.651L310.188 210.304ZM348.665 202.655L339.417 206.458L339.424 206.475L339.431 206.492L348.665 202.655ZM349.473 222.749L359.221 224.982L359.23 224.944L359.238 224.907L349.473 222.749ZM341.081 241.178L332.964 235.338L332.962 235.34L341.081 241.178ZM313.945 243.909L304.718 247.764L304.722 247.772L304.725 247.78L313.945 243.909ZM313.282 223.951L323.028 226.191L323.031 226.179L323.034 226.167L313.282 223.951ZM321.603 205.454L313.465 199.642L313.46 199.649L313.454 199.657L321.603 205.454ZM328.237 218.811L336.806 223.967L336.832 223.923L336.858 223.878L328.237 218.811ZM324.064 228.729L314.318 226.492L314.302 226.559L314.288 226.627L324.064 228.729ZM325.145 237.979L317.426 244.336L317.473 244.393L317.521 244.45L325.145 237.979ZM336.67 235.486L328.534 229.672L328.528 229.68L328.522 229.689L336.67 235.486ZM340.066 227.564L330.296 225.431L330.292 225.447L330.289 225.462L340.066 227.564ZM340.282 217.145L350.116 215.327L350.102 215.251L350.086 215.174L340.282 217.145ZM338.181 204.708C338.489 204.697 338.584 204.736 338.536 204.722C338.477 204.705 338.402 204.667 338.359 204.636C338.28 204.578 338.775 204.897 339.417 206.458L357.914 198.852C356.311 194.954 353.88 191.22 350.196 188.515C346.384 185.716 341.978 184.571 337.517 184.719L338.181 204.708ZM339.431 206.492C340.089 208.076 340.521 209.991 340.6 212.35L360.589 211.686C360.44 207.205 359.587 202.879 357.9 198.819L339.431 206.492ZM340.6 212.35C340.676 214.641 340.421 217.37 339.709 220.591L359.238 224.907C360.238 220.379 360.731 215.955 360.589 211.686L340.6 212.35ZM339.726 220.516C338.517 225.795 336.288 230.718 332.964 235.338L349.198 247.019C354.033 240.299 357.399 232.935 359.221 224.982L339.726 220.516ZM332.962 235.34C328.918 240.963 326.035 241.803 324.57 241.852L325.235 261.841C335.388 261.504 343.291 255.232 349.199 247.017L332.962 235.34ZM324.57 241.852C324.242 241.863 324.124 241.823 324.149 241.83C324.185 241.84 324.242 241.868 324.27 241.889C324.324 241.927 323.819 241.593 323.166 240.037L304.725 247.78C306.364 251.683 308.831 255.401 312.537 258.085C316.364 260.857 320.772 261.989 325.235 261.841L324.57 241.852ZM323.173 240.054C322.587 238.653 322.169 236.846 322.09 234.493L302.101 235.157C302.247 239.55 303.062 243.799 304.718 247.764L323.173 240.054ZM322.09 234.493C322.014 232.189 322.282 229.44 323.028 226.191L303.537 221.711C302.48 226.308 301.957 230.808 302.101 235.157L322.09 234.493ZM323.034 226.167C324.25 220.815 326.47 215.863 329.751 211.251L313.454 199.657C308.67 206.381 305.343 213.761 303.531 221.736L323.034 226.167ZM329.74 211.265C333.776 205.614 336.677 204.758 338.181 204.708L337.517 184.719C327.308 185.058 319.378 191.362 313.465 199.642L329.74 211.265ZM335.566 202.231C327.35 202.504 322.338 209.113 319.616 213.744L336.858 223.878C337.312 223.106 337.702 222.54 338.016 222.138C338.334 221.733 338.526 221.556 338.569 221.519C338.611 221.483 338.438 221.642 338.032 221.822C337.602 222.014 336.983 222.195 336.23 222.22L335.566 202.231ZM319.669 213.655C317.187 217.781 315.333 222.065 314.318 226.492L333.811 230.965C334.27 228.965 335.199 226.638 336.806 223.967L319.669 213.655ZM314.288 226.627C313.795 228.916 313.51 231.283 313.589 233.65L333.578 232.985C333.566 232.634 333.602 231.942 333.841 230.831L314.288 226.627ZM313.589 233.65C313.707 237.214 314.727 241.059 317.426 244.336L332.865 231.622C333.203 232.033 333.402 232.442 333.504 232.747C333.599 233.031 333.583 233.14 333.578 232.985L313.589 233.65ZM317.521 244.45C320.849 248.372 325.446 250.015 330.043 249.862L329.379 229.873C329.605 229.866 330.195 229.89 330.951 230.203C331.739 230.529 332.359 231.024 332.77 231.508L317.521 244.45ZM330.043 249.862C336.738 249.64 341.631 245.763 344.819 241.283L328.522 229.689C328.076 230.316 327.892 230.369 328.09 230.244C328.198 230.177 328.381 230.081 328.633 230.002C328.888 229.922 329.145 229.881 329.379 229.873L330.043 249.862ZM344.807 241.3C347.301 237.809 348.938 233.872 349.842 229.666L330.289 225.462C329.893 227.302 329.267 228.647 328.534 229.672L344.807 241.3ZM349.836 229.697C350.879 224.917 350.998 220.1 350.116 215.327L330.449 218.962C330.825 220.995 330.799 223.124 330.296 225.431L349.836 229.697ZM350.086 215.174C349.577 212.643 348.541 209.434 346.146 206.746C343.386 203.649 339.573 202.098 335.566 202.231L336.23 222.22C335.517 222.243 334.568 222.134 333.55 221.704C332.525 221.272 331.746 220.649 331.215 220.052C330.281 219.004 330.313 218.293 330.478 219.115L350.086 215.174ZM351.044 199.551L347.86 190.072L341.997 192.041L341.141 198.166L351.044 199.551ZM378.631 201.941L368.633 202.167L368.634 202.183L368.634 202.199L378.631 201.941ZM367.317 221.382L360.792 213.804L355.347 218.493L358.053 225.149L367.317 221.382ZM376.027 237.907L383.05 245.026L388.433 239.715L384.789 233.088L376.027 237.907ZM365.323 248.182L356.124 252.104L361.761 265.325L372.198 255.444L365.323 248.182ZM357.159 229.036L366.358 225.114L363.672 218.814L356.827 219.042L357.159 229.036ZM357.089 229.039L356.757 219.044L348.427 219.321L347.198 227.564L357.089 229.039ZM355.124 246.129L358.125 255.668L364.592 253.633L365.096 246.873L355.124 246.129ZM344.123 249.59L334.14 249.016L333.308 263.476L347.125 259.129L344.123 249.59ZM345.359 240.192L355.254 241.638L355.258 241.608L355.263 241.577L345.359 240.192ZM360.267 210.36L356.728 201.008L351.719 202.903L350.521 208.124L360.267 210.36ZM358.477 219.988L348.621 218.297L345.089 238.892L363.343 228.724L358.477 219.988ZM363.216 216.524L369.954 223.912L369.994 223.876L370.034 223.839L363.216 216.524ZM366.718 211.834L357.82 207.271L357.569 207.761L357.373 208.276L366.718 211.834ZM354.228 209.031C361.097 206.723 366.032 205.752 369.327 205.643L368.663 185.654C362.588 185.856 355.555 187.487 347.86 190.072L354.228 209.031ZM369.327 205.643C370.361 205.609 370.954 205.682 371.213 205.733C371.471 205.784 371.193 205.772 370.679 205.437C370.097 205.057 369.482 204.433 369.061 203.608C368.667 202.834 368.635 202.259 368.633 202.167L388.628 201.716C388.517 196.784 386.425 191.833 381.615 188.691C377.495 186.001 372.668 185.521 368.663 185.654L369.327 205.643ZM368.634 202.199C368.683 204.094 367.593 207.949 360.792 213.804L373.842 228.961C382.453 221.547 388.905 212.441 388.628 201.683L368.634 202.199ZM358.053 225.149C359.048 227.595 362.337 233.767 367.264 242.726L384.789 233.088C382.255 228.481 380.289 224.848 378.877 222.17C378.17 220.829 377.62 219.76 377.215 218.947C377.013 218.541 376.858 218.221 376.744 217.978C376.624 217.72 376.579 217.613 376.58 217.616L358.053 225.149ZM369.004 230.788C366.718 233.043 363.21 236.411 358.448 240.92L372.198 255.444C376.984 250.912 380.613 247.43 383.05 245.026L369.004 230.788ZM374.522 244.26L366.358 225.114L347.961 232.959L356.124 252.104L374.522 244.26ZM356.827 219.042L356.757 219.044L357.421 239.033L357.491 239.031L356.827 219.042ZM347.198 227.564C346.248 233.937 345.562 239.88 345.152 245.385L365.096 246.873C365.464 241.94 366.089 236.49 366.98 230.513L347.198 227.564ZM352.123 236.59L341.122 240.051L347.125 259.129L358.125 255.668L352.123 236.59ZM354.107 250.164C354.105 250.193 354.116 250.028 354.171 249.545C354.22 249.106 354.293 248.519 354.392 247.769C354.589 246.27 354.875 244.233 355.254 241.638L335.464 238.747C334.734 243.747 334.231 247.43 334.14 249.016L354.107 250.164ZM355.263 241.577L360.948 200.937L341.141 198.166L335.455 238.807L355.263 241.577ZM350.521 208.124C350.111 209.909 349.753 211.697 349.446 213.486L369.158 216.867C369.401 215.448 369.686 214.025 370.014 212.597L350.521 208.124ZM349.446 213.486L348.621 218.297L368.333 221.678L369.158 216.867L349.446 213.486ZM363.343 228.724C365.712 227.404 367.912 225.775 369.954 223.912L356.477 209.135C355.424 210.095 354.465 210.776 353.61 211.251L363.343 228.724ZM370.034 223.839C372.381 221.652 374.744 218.858 376.064 215.393L357.373 208.276C357.49 207.968 357.565 207.919 357.41 208.127C357.258 208.331 356.949 208.695 356.398 209.208L370.034 223.839ZM375.616 216.398C376.395 214.88 377.107 212.789 377.025 210.296L357.036 210.96C356.978 209.217 357.482 207.93 357.82 207.271L375.616 216.398ZM377.025 210.296C376.928 207.385 375.703 203.76 372.258 201.322C369.348 199.263 366.267 199.1 364.609 199.155L365.273 219.144C364.973 219.154 362.92 219.215 360.706 217.649C357.958 215.704 357.098 212.841 357.036 210.96L377.025 210.296ZM364.609 199.155C361.806 199.248 358.966 200.161 356.728 201.008L363.807 219.713C364.597 219.414 365.14 219.246 365.472 219.16C365.632 219.118 365.699 219.107 365.687 219.109C365.68 219.111 365.532 219.136 365.273 219.144L364.609 199.155ZM378.051 198.724L375.897 188.959L369.111 190.456L368.148 197.338L378.051 198.724ZM390.064 196.074L399.82 198.267L403.27 182.92L387.909 186.309L390.064 196.074ZM383.456 232.243L373.543 230.928L371.726 244.618L385.3 242.072L383.456 232.243ZM395.761 229.935L405.75 230.407L406.348 217.775L393.918 220.106L395.761 229.935ZM395.141 243.041L396.351 252.967L404.731 251.947L405.13 243.513L395.141 243.041ZM371.058 248.695L361.155 247.309L358.974 262.892L374.008 258.25L371.058 248.695ZM380.206 208.49L392.218 205.839L387.909 186.309L375.897 188.959L380.206 208.49ZM380.307 193.881C377.313 207.204 375.052 219.557 373.543 230.928L393.369 233.559C394.786 222.883 396.931 211.123 399.82 198.267L380.307 193.881ZM385.3 242.072L397.605 239.763L393.918 220.106L381.612 222.415L385.3 242.072ZM385.772 229.462L385.153 242.568L405.13 243.513L405.75 230.407L385.772 229.462ZM393.932 233.114C386.75 233.989 378.09 236.058 368.108 239.14L374.008 258.25C383.431 255.341 390.827 253.64 396.351 252.967L393.932 233.114ZM380.962 250.081L387.955 200.11L368.148 197.338L361.155 247.309L380.962 250.081ZM398.518 197.974L395.067 188.588L388.781 190.9L388.525 197.593L398.518 197.974ZM421.87 197.832L428.812 190.634L428.758 190.581L428.703 190.53L421.87 197.832ZM426.359 214.356L416.546 212.432L416.537 212.475L416.529 212.518L426.359 214.356ZM414.147 236.43L421.094 243.623L421.107 243.61L421.121 243.597L414.147 236.43ZM391.808 248.006L381.825 247.432L381.109 259.883L393.419 257.875L391.808 248.006ZM392.978 238.751L402.881 240.14L402.882 240.136L392.978 238.751ZM397.526 206.238L407.43 207.624L407.436 207.581L407.442 207.538L397.526 206.238ZM408.953 209.235L408.2 199.264L400.634 199.835L399.147 207.275L408.953 209.235ZM404.899 235.47L394.953 234.441L392.019 262.798L412.024 242.488L404.899 235.47ZM412.111 225.945L403.479 220.895L403.472 220.907L403.465 220.919L412.111 225.945ZM401.969 207.36C406.757 205.6 410.181 204.919 412.465 204.843L411.801 184.854C406.589 185.027 400.937 186.43 395.067 188.588L401.969 207.36ZM412.465 204.843C413.727 204.801 414.454 204.944 414.8 205.051C415.1 205.142 415.109 205.2 415.038 205.133L428.703 190.53C423.885 186.022 417.704 184.658 411.801 184.854L412.465 204.843ZM414.928 205.029C416.148 206.206 416.758 207.485 416.824 209.466L436.813 208.802C436.58 201.789 433.891 195.533 428.812 190.634L414.928 205.029ZM416.824 209.466C416.85 210.251 416.781 211.23 416.546 212.432L436.172 216.28C436.658 213.8 436.896 211.297 436.813 208.802L416.824 209.466ZM416.529 212.518C415.389 218.616 412.419 224.159 407.174 229.262L421.121 243.597C429.051 235.881 434.222 226.708 436.188 216.194L416.529 212.518ZM407.201 229.236C401.94 234.316 396.313 237.139 390.198 238.136L393.419 257.875C403.911 256.164 413.176 251.269 421.094 243.623L407.201 229.236ZM401.792 248.58C401.792 248.587 401.804 248.408 401.856 247.931C401.904 247.493 401.973 246.911 402.067 246.171C402.253 244.693 402.524 242.688 402.881 240.14L383.075 237.362C382.384 242.287 381.914 245.882 381.825 247.432L401.792 248.58ZM402.882 240.136L407.43 207.624L387.623 204.853L383.075 237.365L402.882 240.136ZM407.442 207.538C408.033 203.025 408.463 199.61 408.511 198.355L388.525 197.593C388.533 197.387 388.543 197.378 388.496 197.824C388.459 198.177 388.402 198.677 388.323 199.342C388.164 200.666 387.928 202.526 387.611 204.938L407.442 207.538ZM399.147 207.275C397.243 216.796 395.841 225.853 394.953 234.441L414.846 236.499C415.662 228.616 416.962 220.183 418.759 211.196L399.147 207.275ZM412.024 242.488C415.374 239.087 418.278 235.232 420.756 230.97L403.465 220.919C401.773 223.831 399.87 226.327 397.775 228.453L412.024 242.488ZM420.742 230.994C423.715 225.912 426.006 220.211 425.812 214.374L405.823 215.038C405.835 215.385 405.655 217.176 403.479 220.895L420.742 230.994ZM425.812 214.374C425.686 210.57 424.416 205.863 420.234 202.531C416.302 199.398 411.66 199.003 408.2 199.264L409.705 219.207C410.69 219.133 409.414 219.482 407.77 218.172C405.876 216.663 405.817 214.86 405.823 215.038L425.812 214.374Z" fill="black"/>
</svg>
